<svg width="781" height="770" viewBox="0 0 781 770" fill="none" xmlns="http://www.w3.org/2000/svg">
<path id="Vector" d="M755.636 687.233C757.874 684.551 759.723 681.21 760.919 677.051C823.733 460.136 727.438 202.282 547.869 68.5682C462.438 4.95378 353.203 -17.5175 251.207 15.0633C193.479 33.5 137.318 68.4313 95.1571 111.95C34.2695 174.796 8.7976 261.676 -2.8888 345.97C-14.5804 430.208 -16.7189 525.336 33.2926 599.127C60.9983 640.007 86.6651 682.068 132.717 699C187.207 719.03 222 732.363 287 747C348.415 760.83 343 761.5 429 765C484.5 760 507.717 765 558.717 765C651.717 781 719.805 766.605 755.636 687.233ZM630.744 724.981C598.851 713.32 565 720 498.5 720C377 730 379 724.981 305 709C179 656.244 155.1 665.534 82.7403 571.667C29.5827 502.722 46.5092 393.248 57.4636 313.836C57.8484 311.037 57.7532 308.502 57.4638 306.085C79.618 252.027 98.1583 189.782 139.624 146.981C177.14 108.27 230.344 79.0884 281.91 64.6146C371.828 39.3817 460.518 71.6316 531.505 127.277C680.19 243.846 760.362 473.953 708.131 656.244C706.995 657.9 705.964 659.729 705.093 661.763C691.504 693.536 672.478 740.235 630.744 724.981Z" fill="black"/>
</svg>